<svg width="468" height="410" viewBox="0 0 468 410" fill="none" xmlns="http://www.w3.org/2000/svg">
<g clip-path="url(#clip0_53_6212)">
<path d="M78.9244 363.108C63.5494 371.398 56.9492 388.993 56.9492 388.993C56.9492 388.993 75.2768 393.147 90.6518 384.857C106.027 376.566 112.627 358.971 112.627 358.971C112.627 358.971 94.2993 354.817 78.9244 363.108Z" fill="#F2F2F2"/>
<path d="M83.9825 368.806C74.9775 383.774 57.0909 389.538 57.0909 389.538C57.0909 389.538 53.8045 371.035 62.8095 356.068C71.8146 341.1 89.7011 335.336 89.7011 335.336C89.7011 335.336 92.9875 353.838 83.9825 368.806Z" fill="#F2F2F2"/>
<path d="M368.546 28.8016H313.994V61.1022H368.546V28.8016Z" fill="#2F2E41"/>
<path d="M259.948 34.0099H231.822V24.202C231.822 20.4723 233.304 16.8953 235.941 14.258C238.579 11.6206 242.156 10.139 245.885 10.139C249.615 10.139 253.192 11.6206 255.829 14.258C258.467 16.8953 259.948 20.4723 259.948 24.202V34.0099ZM232.445 33.3871H259.326V24.202C259.326 20.6374 257.91 17.2188 255.389 14.6983C252.868 12.1777 249.45 10.7617 245.885 10.7617C242.321 10.7617 238.902 12.1777 236.382 14.6983C233.861 17.2188 232.445 20.6374 232.445 24.202V33.3871Z" fill="#3F3D56"/>
<path d="M273.856 32.6609V28.8279L202.328 30.7444L200.064 127.833L210.65 140.91L273.856 32.6609Z" fill="#3F3D56"/>
<path d="M286.518 31.3115L208.99 33.0758L210.65 140.91L285.469 132.845L286.518 31.3115Z" fill="#0062EE"/>
<path d="M352.434 380.684H343.633L339.447 346.741H352.435L352.434 380.684Z" fill="#FFB6B6"/>
<path d="M354.678 389.215L326.303 389.214V388.855C326.303 385.926 327.467 383.117 329.538 381.045C331.609 378.974 334.418 377.811 337.347 377.811L354.678 377.811L354.678 389.215Z" fill="#2F2E41"/>
<path d="M320.133 380.684H311.333L307.146 346.741H320.134L320.133 380.684Z" fill="#FFB6B6"/>
<path d="M322.377 389.215L294.002 389.214V388.855C294.002 385.926 295.166 383.117 297.237 381.045C299.308 378.974 302.117 377.811 305.046 377.811L322.377 377.811L322.377 389.215Z" fill="#2F2E41"/>
<path d="M294.288 168.149C294.288 168.149 281.431 195.838 293.047 251.571C304.662 307.305 304.758 368.491 304.758 368.491L322.519 368.781L332.496 237.051L337.72 366.921H355.219L370.64 239.104C370.64 239.104 380.788 182.03 358.158 171.812L294.288 168.149Z" fill="#2F2E41"/>
<path d="M355.833 70.4335L316.945 66.8487C304.75 75.7375 297.905 91.7023 299.31 108.175C301.215 130.508 300.571 161.244 285.283 174.596C285.283 174.596 326.951 207.482 363.964 176.283C363.964 176.283 351.307 142.376 359.997 128.836C368.687 115.295 371.822 77.2525 355.833 70.4335Z" fill="#E4E4E4"/>
<path d="M240.121 15.2472C240.002 16.3682 240.13 17.5017 240.496 18.5678C240.863 19.634 241.458 20.6069 242.241 21.418C243.024 22.2291 243.975 22.8587 245.028 23.2624C246.08 23.6662 247.208 23.8342 248.333 23.7547L299.679 71.6728L308.881 57.6545L255.516 14.9606C255.258 13.0804 254.318 11.3603 252.876 10.1265C251.434 8.89263 249.589 8.23063 247.691 8.26596C245.794 8.30129 243.975 9.03148 242.58 10.3182C241.185 11.6049 240.31 13.3586 240.121 15.2472Z" fill="#FFB6B6"/>
<path d="M290.089 64.2704L302.27 51.758C302.617 51.402 303.036 51.1249 303.499 50.9455C303.963 50.7661 304.459 50.6887 304.955 50.7186C305.451 50.7484 305.935 50.8848 306.373 51.1184C306.812 51.352 307.195 51.6774 307.496 52.0724L318.056 65.9133C319.868 67.6969 320.898 70.1258 320.921 72.6677C320.944 75.2095 319.958 77.6568 318.18 79.473C316.401 81.2892 313.975 82.3261 311.433 82.3564C308.892 82.3866 306.441 81.4078 304.62 79.6345L290.544 69.4861C290.141 69.1954 289.806 68.8213 289.56 68.3892C289.315 67.9572 289.166 67.4773 289.122 66.9823C289.079 66.4874 289.143 65.9889 289.31 65.5209C289.477 65.0529 289.743 64.6264 290.089 64.2704Z" fill="#E4E4E4"/>
<path d="M430.879 131.939C430.936 130.813 430.745 129.688 430.32 128.644C429.895 127.6 429.247 126.661 428.42 125.895C427.593 125.129 426.609 124.553 425.535 124.208C424.462 123.864 423.326 123.759 422.208 123.9L368.279 78.909L359.869 93.4169L415.524 133.08C415.887 134.943 416.92 136.608 418.429 137.76C419.937 138.912 421.816 139.47 423.708 139.33C425.601 139.189 427.376 138.359 428.698 136.997C430.02 135.634 430.796 133.835 430.879 131.939Z" fill="#FFB6B6"/>
<path d="M378.263 85.7673L366.796 98.9371C366.47 99.3118 366.067 99.6118 365.614 99.8167C365.162 100.022 364.67 100.126 364.173 100.124C363.676 100.122 363.186 100.013 362.735 99.8037C362.284 99.5948 361.884 99.2912 361.561 98.9136L350.248 85.6807C348.34 84.0006 347.177 81.6325 347.012 79.0957C346.848 76.5589 347.696 74.0605 349.371 72.1481C351.046 70.2358 353.411 69.0657 355.947 68.8944C358.484 68.7231 360.984 69.5645 362.901 71.2342L377.52 80.5849C377.938 80.8527 378.294 81.2076 378.563 81.6254C378.832 82.0432 379.007 82.514 379.078 83.0058C379.149 83.4976 379.112 83.9989 378.972 84.4754C378.831 84.9519 378.589 85.3926 378.263 85.7673Z" fill="#E4E4E4"/>
<path d="M436.357 150.963H415.053V143.534C415.053 140.709 416.175 137.999 418.173 136.001C420.17 134.004 422.88 132.881 425.705 132.881C428.53 132.881 431.24 134.004 433.237 136.001C435.235 137.999 436.358 140.709 436.358 143.534L436.357 150.963ZM415.524 150.491H435.886V143.534C435.886 140.834 434.813 138.244 432.904 136.335C430.995 134.426 428.405 133.353 425.705 133.353C423.005 133.353 420.415 134.426 418.506 136.335C416.597 138.244 415.524 140.834 415.524 143.534V150.491Z" fill="#3F3D56"/>
<path d="M446.893 149.941V147.037L392.713 148.49L390.998 222.031L399.016 231.936L446.893 149.941Z" fill="#3F3D56"/>
<path d="M456.483 148.919L397.758 150.255L399.015 231.936L455.689 225.828L456.483 148.919Z" fill="#0062EE"/>
<path d="M339.118 60.3844C351.803 60.3844 362.087 50.1007 362.087 37.4151C362.087 24.7295 351.803 14.4457 339.118 14.4457C326.432 14.4457 316.148 24.7295 316.148 37.4151C316.148 50.1007 326.432 60.3844 339.118 60.3844Z" fill="#FFB6B6"/>
<path d="M328.541 27.178C336.487 34.9649 350.315 35.7112 359.053 28.8248C361.478 37.1894 361.743 46.0322 359.824 54.5273C357.905 63.0223 353.864 70.8923 348.079 77.4021C352.94 79.1583 358.535 78.0029 362.88 75.2037C367.224 72.4044 370.442 68.1304 372.87 63.568C378.88 52.2738 380.385 38.4831 376.133 26.4165C371.881 14.3499 361.693 4.34419 349.316 1.10427C336.939 -2.13566 322.748 1.86646 314.479 11.629C305.832 21.8375 304.431 36.7957 308.221 49.6263C312.01 62.4569 320.321 73.4755 329.452 83.253C325.066 71.9747 322.158 60.1764 320.799 48.1518C320.335 44.0336 320.063 39.7886 321.227 35.811C322.39 31.8334 325.253 28.1284 329.244 27.0108" fill="#2F2E41"/>
<path d="M467.282 390.568H193.804C193.613 390.568 193.431 390.493 193.296 390.358C193.162 390.224 193.086 390.041 193.086 389.851C193.086 389.66 193.162 389.478 193.296 389.343C193.431 389.208 193.613 389.133 193.804 389.133H467.282C467.473 389.133 467.655 389.208 467.79 389.343C467.924 389.478 468 389.66 468 389.851C468 390.041 467.924 390.224 467.79 390.358C467.655 390.493 467.473 390.568 467.282 390.568Z" fill="#CACACA"/>
<path d="M117 390.568H0.717791C0.527421 390.568 0.344859 390.493 0.210247 390.358C0.0756346 390.224 0 390.041 0 389.851C0 389.66 0.0756346 389.478 0.210247 389.343C0.344859 389.208 0.527421 389.133 0.717791 389.133H117C117.19 389.133 117.373 389.208 117.508 389.343C117.642 389.478 117.718 389.66 117.718 389.851C117.718 390.041 117.642 390.224 117.508 390.358C117.373 390.493 117.19 390.568 117 390.568Z" fill="#CACACA"/>
<path d="M424.873 328.257H403.568V320.828C403.568 318.003 404.691 315.293 406.688 313.296C408.686 311.298 411.396 310.176 414.221 310.176C417.046 310.176 419.755 311.298 421.753 313.296C423.751 315.293 424.873 318.003 424.873 320.828L424.873 328.257ZM404.04 327.786H424.401V320.828C424.401 318.128 423.329 315.539 421.42 313.629C419.51 311.72 416.921 310.647 414.221 310.647C411.521 310.647 408.931 311.72 407.022 313.629C405.113 315.539 404.04 318.128 404.04 320.828V327.786Z" fill="#CACACA"/>
<path d="M435.407 327.235V324.332L381.227 325.784L379.512 399.325L387.53 409.231L435.407 327.235Z" fill="#CACACA"/>
<path d="M444.999 326.213L386.273 327.55L387.531 409.231L444.204 403.122L444.999 326.213Z" fill="#E4E4E4"/>
</g>
<defs>
<clipPath id="clip0_53_6212">
<rect width="468" height="409.231" fill="white"/>
</clipPath>
</defs>
</svg>
