<svg width="468" height="391" viewBox="0 0 468 391" fill="none" xmlns="http://www.w3.org/2000/svg">
<g clip-path="url(#clip0_53_5162)">
<path d="M21.7463 372.582C28.2379 384.631 42.0155 389.803 42.0155 389.803C42.0155 389.803 45.268 375.44 38.7764 363.391C32.2848 351.343 18.5072 346.17 18.5072 346.17C18.5072 346.17 15.2547 360.533 21.7463 372.582Z" fill="#2F2E41"/>
<path d="M26.2083 368.618C37.9283 375.675 42.4421 389.692 42.4421 389.692C42.4421 389.692 27.9539 392.267 16.2338 385.21C4.51377 378.153 0 364.136 0 364.136C0 364.136 14.4882 361.561 26.2083 368.618Z" fill="#0062EE"/>
<path d="M288.974 18.7707H215.849V19.8162H288.974V18.7707Z" fill="#F2F2F2"/>
<path d="M269.126 19.5548H268.081V29.2256H269.126V19.5548Z" fill="#F2F2F2"/>
<path d="M237.263 19.5548H236.219V29.2256H237.263V19.5548Z" fill="#F2F2F2"/>
<path d="M326.059 68.9544H252.934V69.9999H326.059V68.9544Z" fill="#F2F2F2"/>
<path d="M273.826 59.545H272.781V69.2158H273.826V59.545Z" fill="#F2F2F2"/>
<path d="M305.688 59.545H304.644V69.2158H305.688V59.545Z" fill="#F2F2F2"/>
<path d="M423.21 92.478H350.085V93.5235H423.21V92.478Z" fill="#F2F2F2"/>
<path d="M370.978 83.0686H369.934V92.7394H370.978V83.0686Z" fill="#F2F2F2"/>
<path d="M402.84 83.0686H401.795V92.7394H402.84V83.0686Z" fill="#F2F2F2"/>
<path d="M415.897 335.033H342.772V336.078H415.897V335.033Z" fill="#F2F2F2"/>
<path d="M363.666 325.623H362.621V335.294H363.666V325.623Z" fill="#F2F2F2"/>
<path d="M395.527 325.623H394.482V335.294H395.527V325.623Z" fill="#F2F2F2"/>
<path d="M291.062 167.231H217.938V168.276H291.062V167.231Z" fill="#F2F2F2"/>
<path d="M238.831 157.821H237.786V167.492H238.831V157.821Z" fill="#F2F2F2"/>
<path d="M270.692 157.821H269.647V167.492H270.692V157.821Z" fill="#F2F2F2"/>
<path d="M314.045 293.213H240.92V294.259H314.045V293.213Z" fill="#F2F2F2"/>
<path d="M261.813 283.804H260.769V293.474H261.813V283.804Z" fill="#F2F2F2"/>
<path d="M293.675 283.804H292.63V293.474H293.675V283.804Z" fill="#F2F2F2"/>
<path d="M431.045 255.052H357.92V256.098H431.045V255.052Z" fill="#F2F2F2"/>
<path d="M378.813 245.643H377.769V255.314H378.813V245.643Z" fill="#F2F2F2"/>
<path d="M410.675 245.643H409.63V255.314H410.675V245.643Z" fill="#F2F2F2"/>
<path d="M189.112 367.065H65.4336V366.175H188.222V322.985H75.8309L70.3711 311.601L71.1734 311.216L76.3909 322.094H189.112V367.065Z" fill="#2F2E41"/>
<path d="M81.8944 388.882C87.0542 388.882 91.237 384.696 91.237 379.532C91.237 374.368 87.0542 370.182 81.8944 370.182C76.7346 370.182 72.5518 374.368 72.5518 379.532C72.5518 384.696 76.7346 388.882 81.8944 388.882Z" fill="#3F3D56"/>
<path d="M173.985 388.882C179.145 388.882 183.328 384.696 183.328 379.532C183.328 374.368 179.145 370.182 173.985 370.182C168.825 370.182 164.643 374.368 164.643 379.532C164.643 384.696 168.825 388.882 173.985 388.882Z" fill="#3F3D56"/>
<path d="M282.537 186.739C285.732 186.739 288.321 184.147 288.321 180.951C288.321 177.754 285.732 175.162 282.537 175.162C279.343 175.162 276.754 177.754 276.754 180.951C276.754 184.147 279.343 186.739 282.537 186.739Z" fill="#3F3D56"/>
<path d="M202.34 308.292H63.3247L33.2451 209.892H233.317L233.135 210.471L202.34 308.292ZM63.9829 307.401H201.687L232.104 210.782H34.4477L63.9829 307.401Z" fill="#2F2E41"/>
<path d="M191.488 303.171H69.3859L42.9658 215.902H218.696L218.536 216.416L191.488 303.171Z" fill="#F2F2F2"/>
<path d="M235.809 201.101L234.949 200.872L240.821 178.724H274.975V179.615H241.505L235.809 201.101Z" fill="#2F2E41"/>
<path d="M223.319 239.723H42.9648V240.614H223.319V239.723Z" fill="#2F2E41"/>
<path d="M212.991 272.531H52.9941V273.422H212.991V272.531Z" fill="#2F2E41"/>
<path d="M133.724 210.337H132.834V307.847H133.724V210.337Z" fill="#2F2E41"/>
<path d="M173.56 210.309L167.173 307.816L168.061 307.874L174.448 210.367L173.56 210.309Z" fill="#2F2E41"/>
<path d="M93.015 210.308L92.127 210.366L98.477 307.876L99.365 307.818L93.015 210.308Z" fill="#2F2E41"/>
<path d="M468 389.447H0V390.492H468V389.447Z" fill="#2F2E41"/>
<path d="M310.996 32.3455C310.996 32.3455 318.632 54.0951 313.933 57.4412C309.234 60.7872 329.791 88.1136 329.791 88.1136L354.46 81.4214L340.951 58.5565C340.951 58.5565 339.189 35.6916 339.189 32.3455C339.189 28.9994 310.996 32.3455 310.996 32.3455Z" fill="#A0616A"/>
<path opacity="0.1" d="M310.996 32.3455C310.996 32.3455 318.632 54.0951 313.933 57.4412C309.234 60.7872 329.791 88.1136 329.791 88.1136L354.46 81.4214L340.951 58.5565C340.951 58.5565 339.189 35.6916 339.189 32.3455C339.189 28.9994 310.996 32.3455 310.996 32.3455Z" fill="black"/>
<path d="M298.179 187.381C298.179 187.381 295.95 215.265 298.179 229.765C300.408 244.264 303.751 284.417 303.751 284.417C303.751 284.417 303.751 360.262 316.01 361.377C328.269 362.493 337.185 363.608 338.299 359.147C339.414 354.685 332.727 352.454 336.071 350.224C339.414 347.993 340.528 340.185 336.071 331.263C331.613 322.34 336.071 231.995 336.071 231.995L357.245 288.879C357.245 288.879 359.474 335.724 361.703 342.416C363.932 349.108 359.474 361.377 367.275 362.493C375.076 363.608 383.992 356.916 388.45 354.685C392.908 352.454 381.763 352.454 383.992 351.339C386.221 350.224 392.908 346.878 390.679 345.762C388.45 344.647 386.221 291.11 386.221 291.11C386.221 291.11 380.091 176.785 372.29 172.323C364.489 167.862 359.474 175.547 359.474 175.547L298.179 187.381Z" fill="#2F2E41"/>
<path d="M318.24 356.916V365.839C318.24 365.839 308.21 390.094 318.24 390.094C328.27 390.094 336.071 392.607 336.071 389.261V359.147L318.24 356.916Z" fill="#2F2E41"/>
<path d="M383.992 356.9V365.823C383.992 365.823 394.022 390.078 383.992 390.078C373.962 390.078 366.161 392.592 366.161 389.246V359.131L383.992 356.9Z" fill="#2F2E41"/>
<path d="M326.598 48.5183C337.677 48.5183 346.658 39.5297 346.658 28.4418C346.658 17.3538 337.677 8.36523 326.598 8.36523C315.519 8.36523 306.538 17.3538 306.538 28.4418C306.538 39.5297 315.519 48.5183 326.598 48.5183Z" fill="#A0616A"/>
<path d="M320.468 65.8064C320.468 65.8064 326.04 82.5368 334.956 79.1907L343.872 75.8446L359.474 182.919C359.474 182.919 347.215 200.765 329.384 189.612C311.553 178.458 320.468 65.8064 320.468 65.8064Z" fill="#0062EE"/>
<path d="M336.071 62.4603L341.086 51.8644C341.086 51.8644 370.619 65.8064 375.077 70.2679C379.535 74.7293 379.535 81.4215 379.535 81.4215L371.734 109.306C371.734 109.306 373.963 170.65 373.963 172.881C373.963 175.112 381.764 187.381 376.192 182.919C370.619 178.458 369.505 173.997 365.047 180.689C360.589 187.381 350.559 195.188 350.559 195.188L336.071 62.4603Z" fill="#3F3D56"/>
<path d="M375.076 142.766L371.733 173.997C371.733 173.997 351.673 191.842 356.131 192.958C360.589 194.073 362.817 189.612 362.817 189.612C362.817 189.612 370.619 197.419 375.076 192.958C379.534 188.496 390.679 146.112 390.679 146.112L375.076 142.766Z" fill="#A0616A"/>
<path d="M327.025 0.0678897C322.578 -0.0912188 317.819 -0.169924 314.069 2.22851C312.344 3.43219 310.831 4.91463 309.592 6.61516C305.94 11.2354 302.785 17.0488 304.141 22.7813L305.717 22.1664C305.717 23.6965 305.377 25.2076 304.722 26.5902C304.943 25.9445 305.686 26.9882 305.487 27.6413L303.752 33.3396C306.605 32.2929 310.154 34.4122 310.588 37.4221C310.787 30.8035 311.473 23.214 316.837 19.3386C319.543 17.3842 322.966 16.7876 326.261 16.2578C329.3 15.769 332.486 15.3029 335.397 16.3042C338.307 17.3055 340.786 20.2849 340.126 23.2938C341.469 22.8311 342.97 23.7673 343.633 25.0234C344.296 26.2795 344.331 27.7612 344.351 29.1818C345.782 30.1938 347.41 28.1843 347.993 26.5309C349.362 22.6499 350.578 18.5186 349.841 14.4696C349.104 10.4206 345.807 6.55115 341.695 6.53742C342.194 5.98871 342.46 5.2672 342.437 4.5255L339.048 4.23888C339.908 4.11694 340.7 3.69937 341.286 3.05771C339.925 4.55639 329.226 0.146621 327.025 0.0678897Z" fill="#2F2E41"/>
<path d="M326.041 59.1142C326.041 59.1142 316.969 50.2166 313.704 50.7616C310.439 51.3066 305.981 59.1142 305.981 59.1142C305.981 59.1142 279.234 68.0371 280.348 76.96C281.463 85.8829 293.722 129.382 293.722 129.382C293.722 129.382 303.752 181.804 294.836 187.381C285.921 192.958 337.185 207.457 338.3 200.765C339.414 194.073 341.643 127.151 338.3 117.113C334.957 107.075 326.041 59.1142 326.041 59.1142Z" fill="#3F3D56"/>
<path d="M365.047 76.96H378.827C378.827 76.96 388.45 119.344 389.565 123.805C390.679 128.267 392.908 149.459 391.794 149.459C390.679 149.459 368.39 144.997 368.39 148.343L365.047 76.96Z" fill="#3F3D56"/>
<path d="M364.58 181.916H311.826C306.678 158.215 306.248 135.315 311.826 113.436H364.58C356.067 134.921 355.535 157.664 364.58 181.916Z" fill="#F2F2F2"/>
<path d="M290.378 152.805L305.98 159.497C305.98 159.497 336.071 163.958 336.071 151.689C336.071 139.42 305.98 146.112 305.98 146.112L295.95 142.903L290.378 152.805Z" fill="#A0616A"/>
<path d="M293.721 70.2678L280.348 73.6139L270.318 132.728C270.318 132.728 266.975 148.343 272.547 149.459C278.119 150.574 293.721 159.497 293.721 159.497C293.721 159.497 295.95 142.766 300.408 142.766L289.264 133.843L295.95 94.8058L293.721 70.2678Z" fill="#3F3D56"/>
<path d="M104.594 184.482H31.4688V185.527H104.594V184.482Z" fill="#F2F2F2"/>
<path d="M52.362 175.072H51.3174V184.743H52.362V175.072Z" fill="#F2F2F2"/>
<path d="M84.2234 175.072H83.1787V184.743H84.2234V175.072Z" fill="#F2F2F2"/>
<path d="M130.188 29.7484H57.0625V30.7939H130.188V29.7484Z" fill="#F2F2F2"/>
<path d="M110.34 30.5325H109.295V40.2034H110.34V30.5325Z" fill="#F2F2F2"/>
<path d="M78.4782 30.5325H77.4336V40.2034H78.4782V30.5325Z" fill="#F2F2F2"/>
<path d="M203.835 132.73H130.71V133.775H203.835V132.73Z" fill="#F2F2F2"/>
<path d="M183.987 133.514H182.942V143.185H183.987V133.514Z" fill="#F2F2F2"/>
<path d="M152.126 133.514H151.081V143.185H152.126V133.514Z" fill="#F2F2F2"/>
<path d="M79.5225 132.207H6.39746V133.252H79.5225V132.207Z" fill="#F2F2F2"/>
<path d="M59.6745 132.991H58.6299V142.662H59.6745V132.991Z" fill="#F2F2F2"/>
<path d="M27.8132 132.991H26.7686V142.662H27.8132V132.991Z" fill="#F2F2F2"/>
<path d="M167.272 79.9321H94.1475V80.9776H167.272V79.9321Z" fill="#F2F2F2"/>
<path d="M115.041 70.5227H113.996V80.1935H115.041V70.5227Z" fill="#F2F2F2"/>
<path d="M146.902 70.5227H145.857V80.1935H146.902V70.5227Z" fill="#F2F2F2"/>
</g>
<defs>
<clipPath id="clip0_53_5162">
<rect width="468" height="391" fill="white"/>
</clipPath>
</defs>
</svg>
