<svg width="172" height="32" viewBox="0 0 172 32" fill="none" xmlns="http://www.w3.org/2000/svg">
<path d="M2.28022 0C1.02089 0 0 1.02335 0 2.28572V29.7143C0 30.9767 1.02089 32 2.28022 32H5.71529C6.01173 26.2694 10.741 21.7143 16.5316 21.7143C22.3222 21.7143 27.0515 26.2694 27.3479 32H29.6429C30.9022 32 31.9231 30.9767 31.9231 29.7143V2.28571C31.9231 1.02335 30.9022 0 29.6429 0H2.28022Z" fill="black"/>
<path d="M48.2745 7.32C50.0463 7.32 51.5945 7.664 52.9194 8.352C54.2601 9.024 55.2896 10 56.0079 11.28C56.7421 12.544 57.1093 14.024 57.1093 15.72C57.1093 17.416 56.7421 18.888 56.0079 20.136C55.2896 21.384 54.2601 22.344 52.9194 23.016C51.5945 23.672 50.0463 24 48.2745 24H42.8396V7.32H48.2745ZM48.2745 21.768C50.2219 21.768 51.7143 21.24 52.7518 20.184C53.7893 19.128 54.308 17.64 54.308 15.72C54.308 13.784 53.7893 12.272 52.7518 11.184C51.7143 10.096 50.2219 9.552 48.2745 9.552H45.5691V21.768H48.2745Z" fill="black"/>
<path d="M71.9052 17.064C71.9052 17.56 71.8733 18.008 71.8095 18.408H61.7298C61.8096 19.464 62.2006 20.312 62.9029 20.952C63.6052 21.592 64.4672 21.912 65.4887 21.912C66.9572 21.912 67.9947 21.296 68.6012 20.064H71.5461C71.1471 21.28 70.4208 22.28 69.3673 23.064C68.3298 23.832 67.037 24.216 65.4887 24.216C64.2277 24.216 63.0945 23.936 62.0889 23.376C61.0993 22.8 60.3172 22 59.7425 20.976C59.1839 19.936 58.9046 18.736 58.9046 17.376C58.9046 16.016 59.1759 14.824 59.7186 13.8C60.2772 12.76 61.0514 11.96 62.041 11.4C63.0466 10.84 64.1958 10.56 65.4887 10.56C66.7337 10.56 67.843 10.832 68.8167 11.376C69.7903 11.92 70.5485 12.688 71.0912 13.68C71.6339 14.656 71.9052 15.784 71.9052 17.064ZM69.0561 16.2C69.0401 15.192 68.681 14.384 67.9787 13.776C67.2764 13.168 66.4065 12.864 65.369 12.864C64.4272 12.864 63.6212 13.168 62.9508 13.776C62.2804 14.368 61.8814 15.176 61.7537 16.2H69.0561Z" fill="black"/>
<path d="M73.6814 17.376C73.6814 16.016 73.9528 14.824 74.4955 13.8C75.0541 12.76 75.8203 11.96 76.794 11.4C77.7676 10.84 78.8849 10.56 80.1459 10.56C81.742 10.56 83.0589 10.944 84.0964 11.712C85.1498 12.464 85.8601 13.544 86.2272 14.952H83.2823C83.0429 14.296 82.6598 13.784 82.1331 13.416C81.6064 13.048 80.944 12.864 80.1459 12.864C79.0286 12.864 78.1347 13.264 77.4643 14.064C76.8099 14.848 76.4827 15.952 76.4827 17.376C76.4827 18.8 76.8099 19.912 77.4643 20.712C78.1347 21.512 79.0286 21.912 80.1459 21.912C81.7261 21.912 82.7715 21.216 83.2823 19.824H86.2272C85.8441 21.168 85.1259 22.24 84.0724 23.04C83.019 23.824 81.7101 24.216 80.1459 24.216C78.8849 24.216 77.7676 23.936 76.794 23.376C75.8203 22.8 75.0541 22 74.4955 20.976C73.9528 19.936 73.6814 18.736 73.6814 17.376Z" fill="black"/>
<path d="M94.6695 24.216C93.4245 24.216 92.2992 23.936 91.2936 23.376C90.2881 22.8 89.498 22 88.9234 20.976C88.3487 19.936 88.0614 18.736 88.0614 17.376C88.0614 16.032 88.3567 14.84 88.9473 13.8C89.5379 12.76 90.3439 11.96 91.3655 11.4C92.387 10.84 93.5283 10.56 94.7892 10.56C96.0502 10.56 97.1914 10.84 98.213 11.4C99.2345 11.96 100.041 12.76 100.631 13.8C101.222 14.84 101.517 16.032 101.517 17.376C101.517 18.72 101.214 19.912 100.607 20.952C100.001 21.992 99.1707 22.8 98.1172 23.376C97.0797 23.936 95.9305 24.216 94.6695 24.216ZM94.6695 21.84C95.3718 21.84 96.0262 21.672 96.6328 21.336C97.2553 21 97.7581 20.496 98.1411 19.824C98.5242 19.152 98.7158 18.336 98.7158 17.376C98.7158 16.416 98.5322 15.608 98.1651 14.952C97.798 14.28 97.3111 13.776 96.7046 13.44C96.0981 13.104 95.4436 12.936 94.7413 12.936C94.039 12.936 93.3846 13.104 92.7781 13.44C92.1875 13.776 91.7166 14.28 91.3655 14.952C91.0143 15.608 90.8387 16.416 90.8387 17.376C90.8387 18.8 91.1979 19.904 91.9161 20.688C92.6504 21.456 93.5682 21.84 94.6695 21.84Z" fill="black"/>
<path d="M111.039 10.56C112.044 10.56 112.938 10.776 113.72 11.208C114.518 11.64 115.141 12.28 115.588 13.128C116.051 13.976 116.282 15 116.282 16.2V24H113.577V16.608C113.577 15.424 113.281 14.52 112.691 13.896C112.1 13.256 111.294 12.936 110.273 12.936C109.251 12.936 108.437 13.256 107.83 13.896C107.24 14.52 106.945 15.424 106.945 16.608V24H104.215V6.24H106.945V12.312C107.408 11.752 107.99 11.32 108.692 11.016C109.411 10.712 110.193 10.56 111.039 10.56Z" fill="black"/>
<path d="M125.486 24.216C124.241 24.216 123.116 23.936 122.11 23.376C121.104 22.8 120.314 22 119.74 20.976C119.165 19.936 118.878 18.736 118.878 17.376C118.878 16.032 119.173 14.84 119.764 13.8C120.354 12.76 121.16 11.96 122.182 11.4C123.203 10.84 124.345 10.56 125.606 10.56C126.867 10.56 128.008 10.84 129.029 11.4C130.051 11.96 130.857 12.76 131.448 13.8C132.038 14.84 132.333 16.032 132.333 17.376C132.333 18.72 132.03 19.912 131.424 20.952C130.817 21.992 129.987 22.8 128.934 23.376C127.896 23.936 126.747 24.216 125.486 24.216ZM125.486 21.84C126.188 21.84 126.843 21.672 127.449 21.336C128.072 21 128.574 20.496 128.958 19.824C129.341 19.152 129.532 18.336 129.532 17.376C129.532 16.416 129.349 15.608 128.981 14.952C128.614 14.28 128.128 13.776 127.521 13.44C126.914 13.104 126.26 12.936 125.558 12.936C124.855 12.936 124.201 13.104 123.594 13.44C123.004 13.776 122.533 14.28 122.182 14.952C121.831 15.608 121.655 16.416 121.655 17.376C121.655 18.8 122.014 19.904 122.733 20.688C123.467 21.456 124.385 21.84 125.486 21.84Z" fill="black"/>
<path d="M151.001 10.56C152.039 10.56 152.964 10.776 153.778 11.208C154.608 11.64 155.255 12.28 155.718 13.128C156.197 13.976 156.436 15 156.436 16.2V24H153.731V16.608C153.731 15.424 153.435 14.52 152.845 13.896C152.254 13.256 151.448 12.936 150.426 12.936C149.405 12.936 148.591 13.256 147.984 13.896C147.394 14.52 147.098 15.424 147.098 16.608V24H144.393V16.608C144.393 15.424 144.098 14.52 143.507 13.896C142.917 13.256 142.111 12.936 141.089 12.936C140.067 12.936 139.253 13.256 138.647 13.896C138.056 14.52 137.761 15.424 137.761 16.608V24H135.032V10.776H137.761V12.288C138.208 11.744 138.775 11.32 139.461 11.016C140.147 10.712 140.881 10.56 141.664 10.56C142.717 10.56 143.659 10.784 144.489 11.232C145.319 11.68 145.957 12.328 146.404 13.176C146.803 12.376 147.426 11.744 148.272 11.28C149.118 10.8 150.027 10.56 151.001 10.56Z" fill="black"/>
<path d="M172 17.064C172 17.56 171.968 18.008 171.904 18.408H161.825C161.904 19.464 162.295 20.312 162.998 20.952C163.7 21.592 164.562 21.912 165.583 21.912C167.052 21.912 168.089 21.296 168.696 20.064H171.641C171.242 21.28 170.516 22.28 169.462 23.064C168.425 23.832 167.132 24.216 165.583 24.216C164.322 24.216 163.189 23.936 162.184 23.376C161.194 22.8 160.412 22 159.837 20.976C159.279 19.936 158.999 18.736 158.999 17.376C158.999 16.016 159.271 14.824 159.813 13.8C160.372 12.76 161.146 11.96 162.136 11.4C163.141 10.84 164.291 10.56 165.583 10.56C166.828 10.56 167.938 10.832 168.911 11.376C169.885 11.92 170.643 12.688 171.186 13.68C171.729 14.656 172 15.784 172 17.064ZM169.151 16.2C169.135 15.192 168.776 14.384 168.073 13.776C167.371 13.168 166.501 12.864 165.464 12.864C164.522 12.864 163.716 13.168 163.046 13.776C162.375 14.368 161.976 15.176 161.848 16.2H169.151Z" fill="black"/>
</svg>
