<svg width="174" height="32" viewBox="0 0 174 32" fill="none" xmlns="http://www.w3.org/2000/svg">
<path fill-rule="evenodd" clip-rule="evenodd" d="M0.940674 21.1165V0.000921655H11.9174V3.25644H5.40639V8.65152H11.6394V11.908H5.40639V21.1165H0.940674ZM19.9177 19.6283H19.8244C18.9874 20.9309 17.8705 21.4888 16.3822 21.4888C14.4284 21.4888 12.6611 20.2796 12.6611 18.2342V6.41959H16.7545V16.6527C16.7545 17.9534 17.0335 18.8846 18.3352 18.8846C19.6368 18.8846 19.9167 17.9534 19.9167 16.6527V6.41959H24.0102V18.2333C24.0102 19.1645 24.1035 20.1872 24.1958 21.1165H19.9167L19.9177 19.6283ZM29.4995 6.41959V8.28015C30.2441 6.6062 31.6381 6.04728 33.313 6.04728V9.76748C29.6852 9.48849 29.6852 11.628 29.6852 13.1163V21.1165H25.4993V6.41959H29.4995ZM38.2424 7.90785H38.3357C39.0803 6.51289 40.1963 6.04728 41.7779 6.04728C43.7317 6.04728 45.499 7.25656 45.499 9.30281V21.1165H41.3132V10.9777C41.3132 9.67511 41.1266 8.65152 39.8249 8.65152C38.4291 8.65152 38.2434 9.67418 38.2434 10.9777V21.1165H34.1499V6.41959H38.2434L38.2424 7.90785ZM47.0797 6.41959H51.1731V21.1165H47.0797V6.41959ZM47.0797 0.000921655H51.1731V3.25644H47.0797V0.000921655ZM51.7311 6.41959H53.3117V4.00104L57.4975 2.23378V6.41959H59.6371V8.93051H57.4975V16.8384C57.4975 17.9534 57.4975 18.6989 58.8001 18.6989C59.0791 18.6989 59.3581 18.6989 59.5447 18.6047V21.1165C58.9867 21.2108 58.4287 21.3022 57.4051 21.3022C53.8706 21.3022 53.3117 18.8846 53.3117 18.0476V8.93051H51.7311V6.41959ZM67.5449 19.6283H67.4516C66.7079 20.9309 65.591 21.4888 64.0095 21.4888C62.0565 21.4888 60.2893 20.2796 60.2893 18.2342V6.41959H64.4751V16.6527C64.4751 17.9534 64.6608 18.8846 65.9633 18.8846C67.2659 18.8846 67.5449 17.9534 67.5449 16.6527V6.41959H71.6374V18.2333C71.6374 19.1645 71.7307 20.1872 71.8231 21.1165H67.5449V19.6283ZM77.6838 6.41959V8.28015H77.7771C78.5217 6.6062 79.9166 6.04728 81.5915 6.04728V9.76748C77.9637 9.48849 77.8704 11.628 77.8704 13.1163V21.1165H73.7779V6.41959H77.6838Z" fill="black"/>
<path fill-rule="evenodd" clip-rule="evenodd" d="M85.5907 14.4198C85.5907 16.188 85.5907 18.7913 87.4513 18.7913C88.9395 18.7913 89.2194 17.3963 89.2194 16.188H93.4052C93.311 17.7686 92.754 19.0712 91.8227 20.0006C90.8001 20.9318 89.4051 21.4888 87.4513 21.4888C82.1495 21.4888 81.4049 18.2342 81.4049 13.5828C81.4049 9.48942 81.9629 6.04822 87.4513 6.04822C93.032 6.04822 93.5909 9.67603 93.4976 14.4198H85.5907ZM89.3109 12.0937C89.3109 10.6978 89.4051 8.65152 87.4503 8.65152C85.4974 8.65152 85.5898 10.8844 85.5898 12.0937H89.3109ZM100.847 21.1165V0.000923307H108.661C112.008 0.000923307 114.8 1.02359 114.8 5.48838C114.8 7.90693 113.591 9.67418 111.171 10.1398V10.2331C114.334 10.6045 115.171 12.6516 115.171 15.5349C115.171 20.9299 110.522 21.1165 108.661 21.1165H100.847ZM105.218 17.8619H107.73C108.661 17.8619 110.707 17.8619 110.707 14.8845C110.707 13.0239 110.056 11.908 107.824 11.908H105.219L105.218 17.8619ZM105.218 8.65152H108.196C109.125 8.65152 110.522 8.00023 110.522 5.95398C110.522 4.37241 109.405 3.25645 107.917 3.25645H105.219L105.218 8.65152ZM120.008 6.41959V8.28015H120.103C120.846 6.6062 122.242 6.04729 123.917 6.04729V9.76749C120.288 9.48849 120.195 11.628 120.195 13.1163V21.1165H116.102V6.41959H120.008ZM135.823 18.419C135.823 19.3502 136.009 20.2796 136.101 21.1165H132.194L132.009 19.1645C131.077 20.7452 129.869 21.4888 128.102 21.4888C125.217 21.4888 124.194 19.3511 124.194 16.7451C124.194 11.8156 128.009 11.629 131.823 11.7223V10.6054C131.823 9.30374 131.637 8.37346 130.149 8.37346C128.752 8.37346 128.567 9.48942 128.567 10.6054H124.566C124.566 8.83813 125.125 7.72216 126.055 7.07087C126.986 6.3272 128.381 6.04822 129.962 6.04822C135.172 6.04822 135.823 8.37438 135.823 11.0719V18.419ZM128.288 16.5584C128.288 17.5811 128.381 18.8846 129.777 18.8846C132.194 18.8846 131.823 15.6282 131.823 14.0466C129.777 14.1399 128.288 13.9542 128.288 16.5584ZM141.125 7.90785C141.962 6.51289 143.079 6.04729 144.568 6.04729C146.614 6.04729 148.288 7.25656 148.288 9.30281V21.1165H144.193V10.9777C144.193 9.67511 143.915 8.65152 142.612 8.65152C141.31 8.65152 141.032 9.67418 141.032 10.9777V21.1165H136.937V6.41959H141.032V7.90785H141.125ZM157.217 21.1165V19.5359H157.123C156.379 20.9309 155.262 21.4879 153.681 21.4879C149.401 21.4879 149.496 16.7441 149.496 13.6743C149.496 10.6968 149.401 6.04636 153.588 6.04636C155.076 6.04636 156.1 6.51104 156.937 7.81362V0H161.123V21.1156L157.217 21.1165ZM156.937 13.6752C156.937 10.6978 157.031 8.65152 155.356 8.65152C153.496 8.65152 153.588 10.6978 153.588 13.6752C153.588 17.3021 153.868 18.8846 155.356 18.8846C156.751 18.8846 156.937 17.3021 156.937 13.6752ZM166.52 16.3728C166.425 17.1164 166.52 17.7677 166.705 18.2333C166.891 18.6989 167.357 18.8846 168.194 18.8846C169.031 18.8846 169.68 18.3266 169.68 17.3963C169.68 14.2332 162.424 14.9778 162.424 10.234C162.424 7.07088 165.587 6.04822 168.285 6.04822C171.076 6.04822 173.588 7.4441 173.402 10.6063H169.402C169.402 9.58365 169.216 9.02567 168.936 8.74575C168.656 8.46676 168.378 8.37438 167.914 8.37438C166.982 8.37438 166.519 9.02567 166.519 9.95502C166.519 12.2803 173.774 12.1879 173.774 16.9317C173.774 19.5368 171.635 21.4898 168.194 21.4898C164.657 21.4898 162.24 20.5604 162.425 16.3746H166.52V16.3728ZM1.68527 25.7679H2.98785V31.8143H1.68527V25.7679ZM11.8251 25.7679H13.6847L17.1268 30.4194V25.7679H18.4294V31.8143H16.5688L13.0343 27.0705V31.8143H11.8251V25.7679ZM32.3827 25.7679V26.7915H30.0575V31.8143H28.7549V26.7915H26.4287V25.7679H32.3827ZM45.2191 26.7915H41.6846V28.1856H45.0334V29.2092H41.6846V30.8831H45.3124V31.8143H40.382V25.7679H45.2191V26.7915ZM53.8706 25.7679H57.4984C58.801 25.7679 59.8246 26.2336 59.8246 27.4419C59.8246 28.4646 59.08 28.9302 58.1506 28.9302V29.0225C59.5456 29.0225 59.6389 29.6738 59.7313 30.7907C59.7313 31.2563 59.8246 31.6277 59.9179 31.8134H58.4296C58.3363 31.6277 58.3363 31.2554 58.3363 30.8822C58.243 29.6729 57.964 29.4872 56.6624 29.4872H55.1741V31.8134H53.8715L53.8706 25.7679ZM55.1732 28.4655H56.9404C57.7774 28.4655 58.4287 28.3713 58.4287 27.6285C58.4287 26.8858 57.7774 26.7915 57.0338 26.7915H55.1732V28.4655ZM68.3819 25.7679H70.3358L73.777 30.4194V25.7679H74.9862V31.8143H73.1257L69.5912 27.0705V31.8143H68.3819V25.7679ZM86.0554 25.7679H87.7293L90.8925 31.8143H89.2185L88.5672 30.5117H85.0318L84.3805 31.8143H82.9855L86.0554 25.7679ZM88.1025 29.4891L86.8 26.8858L85.5907 29.4891H88.1025ZM104.195 25.7679V26.7915H101.869V31.8143H100.567V26.7915H98.2423V25.7679H104.195ZM112.381 25.7679H113.682V31.8143H112.381V25.7679ZM125.777 25.5823C128.009 25.5823 129.311 26.6973 129.311 28.8369C129.311 30.9764 128.009 32 125.777 32C123.543 32 122.242 30.9773 122.242 28.8369C122.242 26.6964 123.543 25.5823 125.777 25.5823ZM125.777 30.9773C127.077 30.9773 127.914 30.2337 127.914 28.8378C127.914 27.3495 127.077 26.6059 125.777 26.6059C124.474 26.6059 123.637 27.3495 123.637 28.8378C123.636 30.2337 124.474 30.9773 125.777 30.9773ZM137.684 25.7679H139.636L143.078 30.4194V25.7679H144.287V31.8143H142.519L138.984 27.0705H138.892V31.8143H137.684V25.7679ZM155.356 25.7679H157.123L160.193 31.8143H158.611L157.867 30.5117H154.424L153.775 31.8143H152.286L155.356 25.7679ZM157.402 29.4891L156.1 26.8858L154.891 29.4891H157.402ZM168.194 25.7679H169.495V30.8831H172.844V31.8143H168.194V25.7679Z" fill="black"/>
</svg>
