<svg width="230" height="32" viewBox="0 0 230 32" fill="none" xmlns="http://www.w3.org/2000/svg">
<path fill-rule="evenodd" clip-rule="evenodd" d="M24.307 31.3758L23.7059 30.4318V1.80706L24.307 0.760295H18.1736L18.7761 1.80706V30.4318L18.1736 31.3758H24.307ZM15.8885 17.3223L18.5346 14.3153H6.50802V1.80706L7.10914 0.760295H0.975769L1.57689 1.80706V30.4318L0.975769 31.3758H7.10914L6.50802 30.4318V17.3223H15.8885ZM111.822 26.503L110.861 27.1055L99.3943 27.0319L99.3568 17.3223H108.739L111.383 14.3153H99.3568V5.12918L110.823 5.0556L111.785 5.65811V0.761682H93.8232L94.4243 1.80844V30.4331L93.8232 31.3772H111.821L111.822 26.503ZM72.6035 21.7329L63.7033 1.68766L64.2642 0.760295H57.5283L58.2502 1.4461L72.6826 31.7548H72.6951L87.1275 1.4461L87.8494 0.760295H81.1136L81.6758 1.68766L72.7756 21.7329H72.6035ZM59.88 31.3758L59.1581 30.7927L44.7257 0.484033H44.7132L30.2807 30.7927L29.5588 31.3758H36.2933L35.7325 30.5512L38.5812 24.1387H50.8576L53.705 30.5512L53.1441 31.3758H59.88ZM40.1124 20.6889L44.6327 10.5073H44.8062L49.3278 20.6889H40.1124ZM151.111 0.760295V5.77611L152.636 5.05421H158.289V30.4304L157.686 31.3744H163.82L163.217 30.4304V5.05421H168.99L170.514 5.77611V0.760295H151.111ZM139.886 31.3758H146.461L145.978 30.6331C145.256 19.3284 136.357 16.6824 136.357 16.6824C143.093 15.2399 142.851 9.30509 142.851 9.30509C142.851 -0.494701 130.01 0.500694 130.01 0.500694H123.874L124.476 1.80706V30.4318L123.874 31.3758H130.01L129.407 30.4318V18.5287C141.961 19.7726 140.527 30.2319 140.527 30.2319L139.886 31.3758ZM129.409 14.4639V4.90289C138.264 3.92416 137.883 9.22457 137.883 9.22457C137.881 15.3802 130.655 14.6374 129.409 14.4639ZM200.509 1.32672L201.163 0.760295H193.345L194.355 1.64185L187.573 12.4523L181.274 1.64185L182.042 0.760295H174.284L175.065 1.32672L184.985 16.4811V30.4318L184.385 31.3758H190.519L189.916 30.4318V16.6004L200.509 1.32672ZM206.034 25.2605V31.9963L206.834 31.1939C206.834 31.1939 207.878 30.9524 209.161 31.5132C210.443 32.0741 211.405 31.9963 213.249 31.9963C215.093 31.9963 222.631 30.472 222.631 21.8939C222.631 21.8939 222.87 17.003 218.219 13.7947C213.568 10.5892 211.164 9.7063 211.164 7.05887C211.164 7.05887 211.725 4.57526 214.691 4.57526C217.658 4.57526 218.862 6.8201 218.862 6.8201V0.163339L218.301 0.646456C218.301 0.646456 217.664 0.974092 216.617 0.484033C215.413 -0.074051 214.614 0.00369112 213.892 0.00369112C213.17 0.00369112 206.341 0.325766 206.341 7.70164C206.341 7.70164 206.195 12.1913 211.165 15.2399C216.138 18.2844 217.498 19.7296 217.498 22.4548C217.498 25.1799 215.576 27.5067 211.968 27.5067C208.359 27.5067 206.034 25.2605 206.034 25.2605ZM222.509 3.26612H223.2C223.211 3.39361 223.255 3.51604 223.328 3.62152C223.447 3.76313 223.647 3.83254 223.933 3.83254C224.073 3.8361 224.213 3.81784 224.348 3.7784C224.551 3.70482 224.652 3.57293 224.652 3.37441C224.652 3.26057 224.604 3.17311 224.504 3.11202C224.404 3.05094 224.245 2.99541 224.032 2.9496L223.662 2.86491C223.304 2.783 223.054 2.69693 222.917 2.60253C222.684 2.44288 222.567 2.19299 222.567 1.85148C222.567 1.54189 222.681 1.28507 222.906 1.07821C223.131 0.875527 223.461 0.771406 223.898 0.771406C224.265 0.771406 224.573 0.865807 224.831 1.06155C225.09 1.25452 225.224 1.53635 225.238 1.90146H224.541C224.53 1.69322 224.438 1.54606 224.27 1.45999C224.139 1.39761 223.995 1.36806 223.85 1.37391C223.662 1.37391 223.514 1.40862 223.403 1.48498C223.292 1.56133 223.238 1.66684 223.238 1.80011C223.238 1.92505 223.292 2.01669 223.4 2.07638C223.471 2.11664 223.622 2.16523 223.853 2.22076L224.45 2.36514C224.711 2.42761 224.908 2.51091 225.041 2.61781C225.246 2.78023 225.35 3.01623 225.35 3.32581C225.353 3.47553 225.323 3.624 225.26 3.76007C225.198 3.89615 225.105 4.01631 224.99 4.11158C224.745 4.31982 224.404 4.42671 223.962 4.42671C223.512 4.42671 223.157 4.32398 222.899 4.11713C222.641 3.91028 222.509 3.62568 222.509 3.26612ZM227.555 3.59375L228.178 0.871359H229.22V4.33371H228.548V1.70849C228.55 1.58632 228.55 1.49469 228.55 1.42667L227.897 4.33371H227.194L226.543 1.42667V1.70849C226.546 1.83066 226.546 1.92228 226.546 1.9903V4.33371H225.874V0.871359H226.926L227.555 3.59375Z" fill="black"/>
</svg>
