<svg width="90" height="32" viewBox="0 0 90 32" fill="none" xmlns="http://www.w3.org/2000/svg">
<path fill-rule="evenodd" clip-rule="evenodd" d="M0 32V0H89.9758V32H0Z" fill="black"/>
<path fill-rule="evenodd" clip-rule="evenodd" d="M45.1138 30.693C57.1218 30.693 69.2696 29.3153 80.4426 24.6887C84.0222 23.2102 88.7891 20.3944 88.7891 15.9997C88.7891 11.5948 84.0125 8.78931 80.4426 7.31077C69.2696 2.68471 57.1213 1.30703 45.1138 1.30703C33.1366 1.30703 20.8275 2.59409 9.71442 7.31077C6.41587 8.70842 1.18672 11.8462 1.18672 15.9997C1.18672 20.143 6.40615 23.2906 9.71442 24.6887C20.827 29.4054 33.1463 30.693 45.1138 30.693Z" fill="white"/>
<path fill-rule="evenodd" clip-rule="evenodd" d="M57.7853 17.5392C57.5534 17.3882 57.3026 17.2776 57.0205 17.2776H52.847V17.9616H58.3587C58.6296 17.9616 58.8814 17.8505 59.1128 17.7102V21.8832H45.164C45.4051 21.682 45.6263 21.4306 45.6263 21.1086V10.4993C45.6263 10.168 45.4051 9.91613 45.164 9.71493H59.1123V13.486C58.8814 13.3355 58.6296 13.2244 58.3582 13.2244H52.8465V14.019H57.02C57.302 14.019 57.5529 13.9181 57.7848 13.7579L57.7853 17.5392ZM71.1091 19.4498H68.0225L67.4086 21.2698C67.3881 21.3349 67.3779 21.4028 67.3784 21.4711C67.3784 21.6221 67.4286 21.7531 67.4992 21.8837H60.3886C60.5494 21.7229 60.6605 21.5525 60.7409 21.3405L64.5324 11.1126C64.6236 10.8612 64.7034 10.5899 64.7034 10.3283C64.7034 10.1071 64.6236 9.90589 64.5324 9.71493H76.0264C75.9363 9.91613 75.8462 10.1173 75.8462 10.3385C75.8462 10.6098 75.9261 10.8715 76.0264 11.1126L80.2102 21.3405C80.2911 21.5622 80.4124 21.7224 80.5931 21.8837H71.7132C71.7731 21.7332 71.814 21.5821 71.814 21.4214C71.814 21.3308 71.8033 21.2504 71.7731 21.17L71.1091 19.4498ZM32.1505 17.4179V21.0983C32.1505 21.4301 32.362 21.6717 32.6031 21.8827H24.186C24.4174 21.6717 24.6385 21.4301 24.6385 21.0983V10.5095C24.6385 10.168 24.4174 9.9361 24.186 9.71493H32.6036C32.362 9.92637 32.151 10.1675 32.151 10.5095V14.17L34.5946 10.5095C34.6653 10.3989 34.7252 10.2684 34.7252 10.1271C34.7252 9.98627 34.655 9.84548 34.5946 9.71493H42.9017C42.5445 9.90117 42.2401 10.1744 42.0165 10.5095L39.0998 14.7434L43.1223 21.0989C43.3338 21.4408 43.6251 21.6922 43.987 21.8832H34.313C34.3832 21.7828 34.4738 21.6723 34.4738 21.5519C34.4738 21.3912 34.3934 21.2299 34.313 21.0989L32.1505 17.4179ZM12.5706 9.71493H21.189C20.9478 9.92637 20.7364 10.1573 20.7364 10.4993V21.0989C20.7364 21.4306 20.9478 21.6723 21.189 21.8832H12.5706C12.802 21.6723 13.013 21.4306 13.013 21.0989V10.4993C13.013 10.1573 12.802 9.92637 12.5706 9.71493Z" fill="black"/>
<path fill-rule="evenodd" clip-rule="evenodd" d="M68.8165 16.996H70.1942L69.4805 15.0552L68.8165 16.996Z" fill="white"/>
</svg>
