<svg width="147" height="32" viewBox="0 0 147 32" fill="none" xmlns="http://www.w3.org/2000/svg">
<path d="M51.7163 7.77251H45.2574C44.6702 7.77251 44.196 8.24357 44.196 8.82679V10.2624C44.2072 10.6437 44.5234 10.9466 44.9073 10.9466H45.9688C46.0027 10.9466 46.0252 10.9578 46.0478 10.9914C46.0704 11.0251 46.0817 11.0699 46.0704 11.1036L43.541 18.6293C43.5184 18.6742 43.4733 18.7078 43.4168 18.6966C43.3717 18.6966 43.3265 18.663 43.3152 18.6293L39.5324 8.43424V8.42302C39.4308 8.17627 39.1937 7.99682 38.9227 7.98561H36.6417C36.3707 8.00804 36.1336 8.17627 36.0206 8.42302V8.43424L32.2379 18.6293C32.2266 18.6742 32.1814 18.7078 32.1362 18.7078C32.0798 18.7078 32.0346 18.6854 32.012 18.6406L29.4827 11.1036C29.4714 11.0699 29.4827 11.0251 29.5052 10.9914C29.5278 10.969 29.5504 10.9466 29.5843 10.9466H30.6457C31.0296 10.9466 31.3458 10.6437 31.3571 10.2624V8.82679C31.3571 8.24357 30.8828 7.77251 30.2957 7.77251H23.8367C23.6109 7.77251 23.3963 7.88467 23.2608 8.06412C23.1366 8.23235 23.0915 8.45667 23.1592 8.65855C23.2495 8.91651 23.3625 9.23055 23.4641 9.55581C23.5657 9.88107 23.6786 10.1839 23.7803 10.4643C23.8706 10.7447 24.1303 10.9353 24.4352 10.9466H25.5192C25.5757 10.9466 25.6321 10.9802 25.6434 11.0363L30.6683 25.6953C30.7586 25.9756 31.0183 26.1775 31.3232 26.1775H32.8815C33.1751 26.1775 33.4348 25.9981 33.5364 25.7289C34.914 21.7585 37.5563 14.1991 37.658 13.9412C37.6693 13.8851 37.7257 13.8402 37.7822 13.8402C37.8386 13.8402 37.8951 13.8739 37.9064 13.9299C38.008 14.1991 40.6503 21.7585 42.0279 25.7177C42.1295 25.9869 42.3893 26.1663 42.6828 26.1775H44.2411C44.546 26.1775 44.8057 25.9756 44.8961 25.6953L49.9096 11.0363C49.9548 10.9466 50.0113 10.9466 50.0339 10.9466H51.1179C51.4115 10.9466 51.6712 10.7559 51.7728 10.4755C51.8744 10.1951 51.9761 9.86985 52.089 9.56703C52.2019 9.2642 52.3148 8.92773 52.4051 8.66977C52.4729 8.46788 52.4277 8.24357 52.3035 8.07533C52.1567 7.88467 51.9535 7.77251 51.7163 7.77251ZM127.327 23.2166H126.152C125.972 23.2166 125.825 23.0708 125.825 22.8801V8.43424C125.825 8.17627 125.61 7.96318 125.339 7.97439H121.907C121.76 7.97439 121.624 8.04169 121.534 8.15384L120.111 9.91471C119.942 10.1166 119.987 10.4194 120.19 10.5877C120.269 10.655 120.371 10.6886 120.461 10.6886H120.902C121.082 10.6998 121.229 10.8456 121.24 11.0251V22.8577C121.24 22.9474 121.207 23.0483 121.15 23.1269C120.777 23.6091 119.953 24.6298 119.547 25.1345C119.366 25.3363 119.389 25.6392 119.592 25.8074C119.682 25.8859 119.784 25.9196 119.897 25.9308H125.881C126.006 25.942 126.13 25.8971 126.22 25.7962L127.62 24.0578C127.948 23.6764 127.722 23.2166 127.327 23.2166Z" fill="black"/>
<path d="M123.51 6.02285C124.932 6.02285 126.085 4.87796 126.085 3.46566C126.085 2.05337 124.932 0.908475 123.51 0.908475C122.088 0.908475 120.935 2.05337 120.935 3.46566C120.935 4.87796 122.088 6.02285 123.51 6.02285Z" fill="black"/>
<path d="M146.162 9.46609C146.162 9.21934 146.026 8.98381 145.699 8.98381H145.1V10.5428H145.326V9.97079H145.529L145.924 10.5428H146.184L145.766 9.94836C146.06 9.92593 146.162 9.6904 146.162 9.46609ZM145.326 9.74648V9.17448H145.721C145.868 9.18569 145.97 9.29785 145.97 9.44365V9.46609C145.981 9.61189 145.879 9.73526 145.744 9.74648H145.326Z" fill="black"/>
<path d="M145.586 8.4118C144.84 8.4118 144.231 9.01745 144.231 9.75769C144.231 10.4979 144.84 11.1036 145.586 11.1036C146.331 11.1036 146.941 10.4979 146.941 9.75769C146.941 9.01745 146.342 8.4118 145.586 8.4118ZM145.586 10.9017C144.953 10.9017 144.434 10.397 144.434 9.76891V9.75769C144.423 9.14083 144.919 8.6249 145.54 8.61368H145.586C146.218 8.61368 146.737 9.12961 146.737 9.75769C146.737 10.3858 146.229 10.9017 145.586 10.9017ZM68.5864 23.2839C67.5927 23.3287 67.0959 22.8689 67.0959 21.7361V13.6271C67.0959 10.0829 64.1035 7.82858 60.7273 7.82858C55.4878 7.82858 53.6021 10.296 53.3875 13.0551C53.3762 13.3243 53.5795 13.5486 53.8392 13.5598H56.4476C56.6961 13.5486 56.8993 13.3579 56.9106 13.1224C57.0461 11.6868 58.0172 10.6325 59.6432 10.6325C61.4386 10.6325 62.5227 11.541 62.5227 13.5823V15.3431H61.5854C58.3673 15.3431 56.154 15.7581 54.6635 16.689C53.173 17.6199 52.4277 19.3359 52.4277 21.3435C52.4277 22.824 52.9359 24.0353 53.9634 24.9999C54.991 25.9644 56.1879 26.3906 57.7575 26.3906C58.6947 26.3906 59.6207 26.1775 60.4675 25.7738C61.3031 25.4036 62.071 24.9101 62.7485 24.3157C62.884 24.1923 63.0986 24.1923 63.2228 24.3269C63.2453 24.3494 63.2679 24.3718 63.2792 24.4054C64.0132 25.684 64.8149 26.099 66.3393 26.099C67.7169 26.099 68.3831 24.8204 68.9816 24.0465C69.2075 23.7437 68.959 23.2614 68.5864 23.2839ZM62.5452 21.9828H62.5227C62.5227 22.095 62.342 22.252 62.2742 22.3193C61.8564 22.667 61.3935 22.9698 60.8966 23.2054C60.445 23.396 59.9594 23.4858 59.4739 23.4745C58.7625 23.4745 58.0511 23.2054 57.5881 22.7006C57.1139 22.1847 56.8654 21.5006 56.8767 20.8052C56.8767 19.7509 57.2719 19.0443 58.0737 18.5172C58.8754 17.99 60.1852 17.7433 61.7548 17.7433H62.534L62.5452 21.9828ZM117.672 23.2839C116.678 23.3287 116.182 22.8689 116.182 21.7361V13.6271C116.182 10.0829 113.189 7.82858 109.813 7.82858C104.574 7.82858 102.688 10.296 102.473 13.0551C102.462 13.3243 102.665 13.5486 102.925 13.5598H105.533C105.782 13.5486 105.985 13.3579 105.996 13.1224C106.132 11.6868 107.103 10.6325 108.729 10.6325C110.524 10.6325 111.608 11.541 111.608 13.5823V15.3431H110.682C107.464 15.3431 105.24 15.7581 103.761 16.689C102.27 17.6199 101.513 19.3359 101.513 21.3435C101.513 22.824 102.022 24.0353 103.049 24.9999C104.077 25.9644 105.274 26.3906 106.843 26.3906C107.78 26.3906 108.706 26.1775 109.553 25.7738C110.389 25.4036 111.157 24.9101 111.834 24.3157C111.97 24.1923 112.184 24.1923 112.309 24.3269C112.331 24.3494 112.354 24.3718 112.365 24.4054C113.099 25.684 113.901 26.099 115.425 26.099C116.803 26.099 117.469 24.8204 118.067 24.0465C118.293 23.7437 118.045 23.2614 117.672 23.2839ZM111.642 21.9828H111.62C111.62 22.095 111.439 22.252 111.371 22.3193C110.953 22.667 110.491 22.9698 109.994 23.2054C109.542 23.396 109.056 23.4858 108.571 23.4745C107.86 23.4745 107.148 23.2054 106.685 22.7006C106.211 22.1847 105.962 21.5006 105.974 20.8052C105.974 19.7509 106.369 19.0443 107.171 18.5172C107.972 17.99 109.282 17.7433 110.852 17.7433H111.631V21.9828H111.642ZM142.006 7.90709C141.769 7.78372 141.171 7.72764 140.651 7.72764C139.815 7.72764 139.149 7.8398 138.573 8.08655L138.528 8.10898C138.314 8.20992 138.099 8.32208 137.907 8.46788C137.173 8.91651 136.53 9.4773 135.965 10.1278C135.965 10.1278 135.717 10.3185 135.671 10.0044V8.37815C135.671 8.12019 135.457 7.90709 135.197 7.90709H131.764C131.629 7.90709 131.493 7.96317 131.414 8.07533C131.414 8.07533 130.33 9.41 129.98 9.86985C129.766 10.139 129.901 10.6437 130.353 10.6437H130.782C130.963 10.6437 131.121 10.8008 131.121 10.9802V22.8689C131.121 22.9586 131.098 23.0596 131.042 23.1381C130.703 23.553 129.845 24.6298 129.427 25.1569C129.269 25.37 129.303 25.6616 129.517 25.8298C129.596 25.8971 129.698 25.9308 129.8 25.9308H137.218C137.478 25.9308 137.693 25.7177 137.693 25.4597V23.6764C137.693 23.4185 137.478 23.2054 137.218 23.2054H136.044C135.852 23.2054 135.705 23.0596 135.705 22.8689V15.9488C135.841 12.6626 137.817 11.6531 138.765 11.3615L138.935 11.3055C139.194 11.2382 139.454 11.2045 139.725 11.2045C140.854 11.2045 141.272 11.3728 141.893 11.5298C142.153 11.5971 142.367 11.3167 142.367 11.0587V8.36694C142.345 8.15384 142.175 7.9856 142.006 7.90709ZM101.66 7.96317H96.2854C96.1047 7.96317 95.9466 7.80615 95.9466 7.6267V4.991C95.9466 3.71241 96.6128 2.43381 97.9904 2.43381C99.5487 2.43381 99.7858 3.73484 99.8536 4.72182C99.8649 4.96857 100.068 5.17045 100.317 5.18167H102.541C102.789 5.17045 102.993 4.96857 102.981 4.71061C102.936 1.41318 100.825 0 97.4371 0C95.3707 0 94.0157 0.639297 92.9994 1.87303C91.9831 3.10676 91.4637 4.48629 91.4637 6.95376V7.61548C91.4637 7.79494 91.3169 7.94074 91.1363 7.94074L81.956 7.96317C81.6963 7.95196 81.4704 8.15384 81.4704 8.42302V10.2175C81.4704 10.4867 81.6963 10.6998 81.956 10.6998H82.9384C83.1303 10.6998 83.2771 10.8568 83.2771 11.0363C83.2771 11.0811 83.2658 11.126 83.2545 11.1597C83.2545 11.1597 80.7252 17.0031 79.7089 19.3359C79.6298 19.5042 79.4379 19.5827 79.2685 19.5154C79.1895 19.4817 79.133 19.4144 79.0878 19.3359C78.049 16.9806 75.497 11.1597 75.497 11.1597C75.4293 10.9914 75.5083 10.7895 75.6777 10.7222C75.7116 10.711 75.7567 10.6998 75.8019 10.6998H76.4907C76.7617 10.6998 76.9763 10.4867 76.9763 10.2175V8.43423C76.9763 8.17627 76.7617 7.96317 76.4907 7.97439H68.1799C67.9089 7.97439 67.6943 8.1987 67.7056 8.46788C67.7056 8.54639 67.7282 8.61369 67.7621 8.68098C68.0105 9.11839 68.5638 10.1615 68.7219 10.4643C68.8009 10.6101 68.959 10.6998 69.1171 10.711H70.7206C70.8561 10.711 70.9803 10.7895 71.0367 10.9129C71.0367 10.9129 76.9424 24.0802 77.1569 24.54C77.3828 25.1232 77.3828 25.7738 77.1456 26.3682C76.8746 27.4449 75.0566 29.374 74.0517 29.0263C73.3629 28.7908 73.2725 27.5458 72.4482 27.3888C72.2901 27.3664 72.1433 27.3776 71.9965 27.4449C71.8497 27.501 70.506 29.217 70.2124 29.5198C70.0656 29.7105 70.0656 29.9684 70.2124 30.1591C70.9464 30.9106 72.1772 31.92 73.9613 31.9873C76.1519 32.077 78.3087 31.7854 80.3074 28.0169C80.3074 28.0169 86.6647 12.5841 87.4212 10.9241C87.489 10.812 87.6019 10.7447 87.7374 10.7447H91.0911C91.2718 10.7447 91.4298 10.8905 91.4298 11.0699V22.925C91.4298 23.0259 91.396 23.1156 91.3395 23.1941C90.9443 23.6988 90.1426 24.6971 89.7361 25.2018C89.5667 25.4036 89.6006 25.7065 89.8038 25.8635C89.8941 25.9308 89.9958 25.9756 90.1087 25.9644H97.6065C97.8775 25.9644 98.092 25.7513 98.092 25.4822V23.7213C98.092 23.4521 97.8775 23.239 97.6065 23.239H96.3192C96.1386 23.239 95.9918 23.0932 95.9918 22.9025V11.0251C95.9918 10.8456 96.1386 10.6998 96.3192 10.6998H100.283C100.429 10.6998 100.565 10.6325 100.655 10.5204C100.994 10.0829 101.672 9.1969 102.033 8.73706C102.191 8.52396 102.157 8.23235 101.943 8.06411C101.864 8.00804 101.762 7.96317 101.66 7.96317Z" fill="black"/>
<path d="M20.7315 13.672L19.4329 8.82679C19.3877 8.65855 19.2635 8.53518 19.0941 8.49031L14.216 7.2005C14.058 7.15564 13.8773 7.2005 13.7644 7.32388L10.4897 10.5764L17.3439 17.3844L20.6185 14.1318C20.7315 14.0085 20.7766 13.829 20.7315 13.672Z" fill="black"/>
<path d="M0.236711 21.0856L1.53528 25.9308C1.58044 26.099 1.70465 26.2224 1.87403 26.2673L6.76341 27.5571C6.9215 27.6019 7.10217 27.5571 7.21509 27.4337L10.4897 24.1811L3.64686 17.3732L0.372214 20.6257C0.248003 20.7491 0.202836 20.9173 0.236711 21.0856Z" fill="black"/>
<path d="M6.75213 7.2005L1.87404 8.49031C1.70467 8.53518 1.58046 8.65855 1.53529 8.82679L0.236723 13.672C0.191556 13.829 0.236723 14.0085 0.360934 14.1206L3.63558 17.3732L10.4784 10.5764L7.20381 7.32388C7.09089 7.2005 6.92151 7.15564 6.75213 7.2005Z" fill="black"/>
<path d="M20.5621 20.5809L17.3326 17.3732L10.4897 24.1699L13.7192 27.3776C13.866 27.5234 14.0805 27.5795 14.2838 27.5346L19.0377 26.2785C19.2409 26.2224 19.399 26.0654 19.4555 25.8635L20.7202 21.1417C20.7653 20.9398 20.7089 20.7267 20.5621 20.5809Z" fill="black"/>
<path d="M10.4897 10.5764L3.64686 17.3732L10.4897 24.1699L17.3439 17.3732L10.4897 10.5764Z" fill="black"/>
<path d="M20.7315 13.672L19.4329 8.82679C19.3877 8.65855 19.2635 8.53518 19.0941 8.49031L14.216 7.2005C14.058 7.15564 13.8773 7.2005 13.7644 7.32388L10.4897 10.5764L17.3439 17.3844L20.6185 14.1318C20.7315 14.0085 20.7766 13.829 20.7315 13.672Z" fill="black"/>
<path d="M0.236711 21.0856L1.53528 25.9308C1.58044 26.099 1.70465 26.2224 1.87403 26.2673L6.76341 27.5571C6.9215 27.6019 7.10217 27.5571 7.21509 27.4337L10.4897 24.1811L3.64686 17.3732L0.372214 20.6257C0.248003 20.7491 0.202836 20.9173 0.236711 21.0856Z" fill="black"/>
<path d="M6.75213 7.2005L1.87404 8.49031C1.70467 8.53518 1.58046 8.65855 1.53529 8.82679L0.236723 13.672C0.191556 13.829 0.236723 14.0085 0.360934 14.1206L3.63558 17.3732L10.4784 10.5764L7.20381 7.32388C7.09089 7.2005 6.92151 7.15564 6.75213 7.2005Z" fill="black"/>
<path d="M20.5621 20.5809L17.3326 17.3732L10.4897 24.1699L13.7192 27.3776C13.866 27.5234 14.0805 27.5795 14.2838 27.5346L19.0377 26.2785C19.2409 26.2224 19.399 26.0654 19.4555 25.8635L20.7202 21.1417C20.7653 20.9398 20.7089 20.7267 20.5621 20.5809Z" fill="black"/>
<path d="M10.4897 10.5764L3.64686 17.3732L10.4897 24.1699L17.3439 17.3732L10.4897 10.5764Z" fill="white"/>
</svg>
